<svg xmlns="http://www.w3.org/2000/svg" viewBox="0 0 400 400" width="400" height="400">
  <rect width="400" height="400" fill="#F7F1E8"></rect>
  <g fill="#C17C74">
    

    
    <rect x="80" y="250" width="16" height="70"></rect>
    <rect x="83" y="306" width="10" height="3" fill="#F7F1E8"></rect>

    
    <rect x="104" y="220" width="16" height="100"></rect>
    <rect x="107" y="306" width="10" height="3" fill="#F7F1E8"></rect>

    
    <rect x="128" y="185" width="16" height="135"></rect>
    <rect x="131" y="306" width="10" height="3" fill="#F7F1E8"></rect>

    
    <rect x="152" y="150" width="16" height="170"></rect>
    <rect x="155" y="306" width="10" height="3" fill="#F7F1E8"></rect>

    
    <rect x="176" y="115" width="16" height="205"></rect>
    <rect x="179" y="306" width="10" height="3" fill="#F7F1E8"></rect>

    
    <rect x="200" y="70" width="16" height="250"></rect>
    <rect x="203" y="306" width="10" height="3" fill="#F7F1E8"></rect>

    
    <path d="&#xA;      M216 198&#xA;      C 258 182, 304 200, 304 244&#xA;      C 304 286, 262 314, 216 318&#xA;      L216 258&#xA;      C 238 256, 256 248, 256 234&#xA;      C 256 220, 240 218, 216 230&#xA;      Z"></path>
  </g>
</svg>